<svg width="800" height="450" xmlns="http://www.w3.org/2000/svg">
  <defs>
    <linearGradient id="bg1039" x1="0%" y1="0%" x2="100%" y2="100%">
      <stop offset="0%" style="stop-color:#4776E6"/>
      <stop offset="100%" style="stop-color:#8E54E9"/>
    </linearGradient>
  </defs>
  <rect width="800" height="450" fill="url(#bg1039)"/>
  
  <!-- Scree plot bars -->
  <rect x="120" y="100" width="50" height="150" fill="rgba(255,255,255,0.8)" rx="5"/>
  <rect x="190" y="140" width="50" height="110" fill="rgba(255,255,255,0.6)" rx="5"/>
  <rect x="260" y="170" width="50" height="80" fill="rgba(255,255,255,0.45)" rx="5"/>
  <rect x="330" y="195" width="50" height="55" fill="rgba(255,255,255,0.3)" rx="5"/>
  <rect x="400" y="215" width="50" height="35" fill="rgba(255,255,255,0.2)" rx="5"/>
  <rect x="470" y="225" width="50" height="25" fill="rgba(255,255,255,0.15)" rx="5"/>
  <rect x="540" y="235" width="50" height="15" fill="rgba(255,255,255,0.1)" rx="5"/>
  
  <!-- Axis labels -->
  <text x="145" y="270" fill="rgba(255,255,255,0.7)" font-size="14" text-anchor="middle">PC1</text>
  <text x="215" y="270" fill="rgba(255,255,255,0.7)" font-size="14" text-anchor="middle">PC2</text>
  <text x="285" y="270" fill="rgba(255,255,255,0.7)" font-size="14" text-anchor="middle">PC3</text>
  <text x="355" y="270" fill="rgba(255,255,255,0.7)" font-size="14" text-anchor="middle">PC4</text>
  
  <!-- Elbow line -->
  <path d="M145 100 L215 140 L285 175 L355 200 L425 218 L495 230 L565 238" 
        stroke="white" stroke-width="3" fill="none" stroke-linecap="round"/>
  <circle cx="285" cy="175" r="8" fill="#fbbf24" stroke="white" stroke-width="2"/>
  
  <!-- Title -->
  <text x="400" y="340" fill="white" font-size="42" font-weight="bold" text-anchor="middle" font-family="Arial">PCA</text>
  <text x="400" y="390" fill="rgba(255,255,255,0.8)" font-size="24" text-anchor="middle" font-family="Arial">主成分分析</text>
</svg>
