<svg xmlns="http://www.w3.org/2000/svg" width="1600" height="900" viewBox="0 0 1600 900">
  <defs>
    <linearGradient id="bg" x1="0%" y1="0%" x2="100%" y2="100%">
      <stop offset="0%" stop-color="#14532d" />
      <stop offset="100%" stop-color="#052e16" />
    </linearGradient>
  </defs>
  
  <rect width="1600" height="900" fill="url(#bg)" />
  
  <!-- Stylized Forest -->
  <g transform="translate(0, 600)" fill="#22c55e" opacity="0.8">
    <path d="M100,0 L200,-300 L300,0 Z" />
    <path d="M400,0 L500,-250 L600,0 Z" opacity="0.8"/>
    <path d="M700,0 L850,-350 L1000,0 Z" opacity="0.9"/>
    <path d="M1100,0 L1200,-280 L1300,0 Z" opacity="0.7"/>
    <path d="M1400,0 L1500,-320 L1600,0 Z" />
  </g>
  
  <!-- Foreground Trees -->
  <g transform="translate(0, 650)" fill="#4ade80">
    <path d="M250,0 L350,-200 L450,0 Z" />
    <path d="M900,0 L1000,-180 L1100,0 Z" />
    <path d="M1250,0 L1350,-220 L1450,0 Z" />
  </g>
  
  <text x="800" y="200" font-family="Arial, sans-serif" font-weight="bold" font-size="64" fill="white" text-anchor="middle" letter-spacing="2">RANDOM FOREST</text>
  <text x="800" y="270" font-family="Arial, sans-serif" font-size="32" fill="#86efac" text-anchor="middle">ENSEMBLE OF DECISION TREES</text>
</svg>