<svg xmlns="http://www.w3.org/2000/svg" width="1600" height="900" viewBox="0 0 1600 900">
  <defs>
    <linearGradient id="bg" x1="0" y1="0" x2="1" y2="1">
      <stop offset="0%" stop-color="#eff6ff"/>
      <stop offset="50%" stop-color="#dbeafe"/>
      <stop offset="100%" stop-color="#f8fafc"/>
    </linearGradient>
    <linearGradient id="accent" x1="0" y1="0" x2="1" y2="1">
      <stop offset="0%" stop-color="#2563eb"/>
      <stop offset="100%" stop-color="#38bdf8"/>
    </linearGradient>
    <filter id="shadow" x="-20%" y="-20%" width="140%" height="140%">
      <feDropShadow dx="0" dy="12" stdDeviation="18" flood-color="#1e3a8a" flood-opacity="0.18"/>
    </filter>
  </defs>
  <rect width="1600" height="900" fill="url(#bg)"/>
  <rect x="140" y="120" width="1320" height="660" rx="36" fill="#ffffff" filter="url(#shadow)"/>
  <rect x="180" y="170" width="1240" height="90" rx="18" fill="url(#accent)"/>
  <text x="220" y="230" font-family="Segoe UI, Arial, sans-serif" font-size="48" fill="#ffffff" font-weight="700">广义估计方程 (GEE)</text>
  <text x="220" y="300" font-family="Segoe UI, Arial, sans-serif" font-size="28" fill="#1e3a8a">重复测量与相关数据建模</text>
  <g fill="#dbeafe">
    <rect x="220" y="360" width="420" height="26" rx="13"/>
    <rect x="220" y="410" width="520" height="26" rx="13"/>
    <rect x="220" y="460" width="480" height="26" rx="13"/>
  </g>
  <g stroke="url(#accent)" stroke-width="6" fill="none">
    <path d="M980 520 C1060 430, 1180 430, 1260 520"/>
    <path d="M980 600 C1060 510, 1180 510, 1260 600"/>
  </g>
  <text x="220" y="580" font-family="Segoe UI, Arial, sans-serif" font-size="22" fill="#1e3a8a">Correlation Structure • Robust SE • Population Average</text>
</svg>
