<svg xmlns="http://www.w3.org/2000/svg" viewBox="0 0 800 450">
  <defs>
    <linearGradient id="bg" x1="0%" y1="0%" x2="100%" y2="100%">
      <stop offset="0%" style="stop-color:#0f172a"/>
      <stop offset="100%" style="stop-color:#2563eb"/>
    </linearGradient>
  </defs>

  <rect width="800" height="450" fill="url(#bg)"/>

  <circle cx="120" cy="120" r="90" fill="rgba(255,255,255,0.08)"/>
  <circle cx="680" cy="340" r="120" fill="rgba(255,255,255,0.08)"/>

  <path d="M120 330 C 220 220, 320 260, 420 170" stroke="rgba(255,255,255,0.85)" stroke-width="4" fill="none"/>
  <path d="M140 340 C 240 300, 350 340, 480 320" stroke="rgba(255,255,255,0.65)" stroke-width="4" fill="none"/>
  <path d="M160 360 C 260 420, 380 360, 520 260" stroke="rgba(255,255,255,0.5)" stroke-width="4" fill="none"/>

  <g fill="white" opacity="0.9">
    <circle cx="120" cy="330" r="6"/>
    <circle cx="200" cy="280" r="6"/>
    <circle cx="300" cy="260" r="6"/>
    <circle cx="420" cy="170" r="6"/>

    <circle cx="140" cy="340" r="6"/>
    <circle cx="240" cy="310" r="6"/>
    <circle cx="350" cy="340" r="6"/>
    <circle cx="480" cy="320" r="6"/>

    <circle cx="160" cy="360" r="6"/>
    <circle cx="260" cy="400" r="6"/>
    <circle cx="380" cy="360" r="6"/>
    <circle cx="520" cy="260" r="6"/>
  </g>

  <text x="400" y="90" font-family="Arial, sans-serif" font-size="32" font-weight="bold" fill="white" text-anchor="middle">Group-Based Trajectory Modeling</text>
  <text x="400" y="125" font-family="Arial, sans-serif" font-size="18" fill="rgba(255,255,255,0.8)" text-anchor="middle">GBTM · 纵向轨迹分组</text>
</svg>
