<svg xmlns="http://www.w3.org/2000/svg" viewBox="0 0 800 400">
  <defs>
    <linearGradient id="bg-metrics" x1="0%" y1="0%" x2="100%" y2="100%">
      <stop offset="0%" style="stop-color:#0f172a"/>
      <stop offset="100%" style="stop-color:#1d4ed8"/>
    </linearGradient>
  </defs>
  <rect width="800" height="400" fill="url(#bg-metrics)"/>

  <g transform="translate(70, 85)">
    <rect x="0" y="0" width="300" height="230" fill="rgba(255,255,255,0.08)" stroke="rgba(255,255,255,0.25)" stroke-width="1"/>
    <line x1="30" y1="180" x2="270" y2="180" stroke="white" stroke-width="2"/>
    <line x1="30" y1="40" x2="30" y2="180" stroke="white" stroke-width="2"/>
    <path d="M30 165 L90 150 L140 120 L210 85 L270 60" stroke="#38bdf8" stroke-width="4" fill="none"/>
    <circle cx="210" cy="85" r="6" fill="#38bdf8"/>
    <text x="150" y="210" font-family="Inter, sans-serif" font-size="12" fill="white" text-anchor="middle">分类指标</text>
  </g>

  <g transform="translate(430, 85)">
    <rect x="0" y="0" width="300" height="230" fill="rgba(255,255,255,0.08)" stroke="rgba(255,255,255,0.25)" stroke-width="1"/>
    <line x1="30" y1="180" x2="270" y2="180" stroke="white" stroke-width="2"/>
    <line x1="30" y1="40" x2="30" y2="180" stroke="white" stroke-width="2"/>
    <path d="M30 150 L80 140 L130 115 L180 95 L230 80 L270 70" stroke="#f59e0b" stroke-width="4" fill="none"/>
    <circle cx="230" cy="80" r="6" fill="#f59e0b"/>
    <text x="150" y="210" font-family="Inter, sans-serif" font-size="12" fill="white" text-anchor="middle">回归指标</text>
  </g>

  <text x="400" y="55" font-family="Inter, sans-serif" font-size="36" fill="white" text-anchor="middle" font-weight="700">预测指标与使用场景</text>
  <text x="400" y="355" font-family="Inter, sans-serif" font-size="14" fill="rgba(255,255,255,0.75)" text-anchor="middle">Accuracy | AUC | PR AUC | RMSE | Log Loss</text>
</svg>
