<svg width="800" height="450" xmlns="http://www.w3.org/2000/svg">
  <defs>
    <linearGradient id="bg2028" x1="0%" y1="0%" x2="100%" y2="100%">
      <stop offset="0%" style="stop-color:#ee0979"/>
      <stop offset="100%" style="stop-color:#ff6a00"/>
    </linearGradient>
  </defs>
  <rect width="800" height="450" fill="url(#bg2028)"/>
  
  <!-- Bar chart -->
  <rect x="100" y="150" width="60" height="120" fill="rgba(255,255,255,0.9)" rx="5"/>
  <rect x="180" y="100" width="60" height="170" fill="rgba(255,255,255,0.75)" rx="5"/>
  <rect x="260" y="80" width="60" height="190" fill="rgba(255,255,255,0.6)" rx="5"/>
  <rect x="340" y="130" width="60" height="140" fill="rgba(255,255,255,0.5)" rx="5"/>
  
  <!-- Pie chart -->
  <circle cx="580" cy="160" r="100" fill="rgba(255,255,255,0.2)" stroke="white" stroke-width="2"/>
  <path d="M580 160 L580 60 A100 100 0 0 1 670 110 Z" fill="rgba(255,255,255,0.8)"/>
  <path d="M580 160 L670 110 A100 100 0 0 1 660 230 Z" fill="rgba(255,255,255,0.6)"/>
  <path d="M580 160 L660 230 A100 100 0 0 1 500 230 Z" fill="rgba(255,255,255,0.45)"/>
  <path d="M580 160 L500 230 A100 100 0 0 1 480 160 Z" fill="rgba(255,255,255,0.3)"/>
  <path d="M580 160 L480 160 A100 100 0 0 1 580 60 Z" fill="rgba(255,255,255,0.5)"/>
  
  <!-- Title -->
  <text x="400" y="350" fill="white" font-size="38" font-weight="bold" text-anchor="middle" font-family="Arial">柱状图与饼图</text>
  <text x="400" y="395" fill="rgba(255,255,255,0.8)" font-size="20" text-anchor="middle" font-family="Arial">Bar Chart &amp; Pie Chart</text>
</svg>
