<svg xmlns="http://www.w3.org/2000/svg" viewBox="0 0 400 300">
  <defs>
    <linearGradient id="bgGrad" x1="0%" y1="0%" x2="100%" y2="100%">
      <stop offset="0%" style="stop-color:#1e1b4b"/><stop offset="100%" style="stop-color:#312e81"/>
    </linearGradient>
  </defs>
  <rect width="400" height="300" fill="url(#bgGrad)"/>
  
  <!-- Calendar grid -->
  <g transform="translate(40, 60)">
    <!-- Week labels -->
    <text x="-10" y="15" font-family="Arial" font-size="8" fill="#a5b4fc" text-anchor="end">一</text>
    <text x="-10" y="35" font-family="Arial" font-size="8" fill="#a5b4fc" text-anchor="end">三</text>
    <text x="-10" y="55" font-family="Arial" font-size="8" fill="#a5b4fc" text-anchor="end">五</text>
    
    <!-- Calendar cells - 7 rows x many columns -->
    <g>
      <!-- Column 1-5 (lighter) -->
      <rect x="0" y="0" width="12" height="12" rx="2" fill="#1e3a5f"/>
      <rect x="0" y="15" width="12" height="12" rx="2" fill="#2563eb"/>
      <rect x="0" y="30" width="12" height="12" rx="2" fill="#1e3a5f"/>
      <rect x="0" y="45" width="12" height="12" rx="2" fill="#4f46e5"/>
      <rect x="0" y="60" width="12" height="12" rx="2" fill="#1e3a5f"/>
      
      <rect x="15" y="0" width="12" height="12" rx="2" fill="#4f46e5"/>
      <rect x="15" y="15" width="12" height="12" rx="2" fill="#6366f1"/>
      <rect x="15" y="30" width="12" height="12" rx="2" fill="#1e3a5f"/>
      <rect x="15" y="45" width="12" height="12" rx="2" fill="#1e3a5f"/>
      <rect x="15" y="60" width="12" height="12" rx="2" fill="#4f46e5"/>
      
      <!-- More columns with varying intensity -->
      <rect x="30" y="0" width="12" height="12" rx="2" fill="#818cf8"/>
      <rect x="30" y="15" width="12" height="12" rx="2" fill="#4f46e5"/>
      <rect x="30" y="30" width="12" height="12" rx="2" fill="#6366f1"/>
      <rect x="30" y="45" width="12" height="12" rx="2" fill="#1e3a5f"/>
      <rect x="30" y="60" width="12" height="12" rx="2" fill="#1e3a5f"/>
      
      <!-- Continue pattern -->
      <rect x="45" y="0" width="12" height="12" rx="2" fill="#1e3a5f"/>
      <rect x="45" y="15" width="12" height="12" rx="2" fill="#1e3a5f"/>
      <rect x="45" y="30" width="12" height="12" rx="2" fill="#4f46e5"/>
      <rect x="45" y="45" width="12" height="12" rx="2" fill="#818cf8"/>
      <rect x="45" y="60" width="12" height="12" rx="2" fill="#6366f1"/>
      
      <rect x="60" y="0" width="12" height="12" rx="2" fill="#6366f1"/>
      <rect x="60" y="15" width="12" height="12" rx="2" fill="#4f46e5"/>
      <rect x="60" y="30" width="12" height="12" rx="2" fill="#1e3a5f"/>
      <rect x="60" y="45" width="12" height="12" rx="2" fill="#1e3a5f"/>
      <rect x="60" y="60" width="12" height="12" rx="2" fill="#4f46e5"/>
      
      <!-- More weeks -->
      <rect x="75" y="0" width="12" height="12" rx="2" fill="#1e3a5f"/>
      <rect x="75" y="15" width="12" height="12" rx="2" fill="#818cf8"/>
      <rect x="75" y="30" width="12" height="12" rx="2" fill="#a5b4fc"/>
      <rect x="75" y="45" width="12" height="12" rx="2" fill="#4f46e5"/>
      <rect x="75" y="60" width="12" height="12" rx="2" fill="#1e3a5f"/>
      
      <!-- ... continue for more weeks ... -->
      <rect x="90" y="0" width="12" height="12" rx="2" fill="#4f46e5"/>
      <rect x="90" y="15" width="12" height="12" rx="2" fill="#1e3a5f"/>
      <rect x="90" y="30" width="12" height="12" rx="2" fill="#6366f1"/>
      <rect x="90" y="45" width="12" height="12" rx="2" fill="#1e3a5f"/>
      <rect x="90" y="60" width="12" height="12" rx="2" fill="#818cf8"/>
      
      <rect x="105" y="0" width="12" height="12" rx="2" fill="#1e3a5f"/>
      <rect x="105" y="15" width="12" height="12" rx="2" fill="#4f46e5"/>
      <rect x="105" y="30" width="12" height="12" rx="2" fill="#1e3a5f"/>
      <rect x="105" y="45" width="12" height="12" rx="2" fill="#a5b4fc"/>
      <rect x="105" y="60" width="12" height="12" rx="2" fill="#4f46e5"/>
      
      <!-- More weeks to fill space -->
      <rect x="120" y="0" width="12" height="12" rx="2" fill="#6366f1"/>
      <rect x="120" y="15" width="12" height="12" rx="2" fill="#1e3a5f"/>
      <rect x="120" y="30" width="12" height="12" rx="2" fill="#4f46e5"/>
      <rect x="120" y="45" width="12" height="12" rx="2" fill="#1e3a5f"/>
      <rect x="120" y="60" width="12" height="12" rx="2" fill="#1e3a5f"/>
      
      <!-- ... more columns ... -->
      <rect x="135" y="0" width="12" height="12" rx="2" fill="#1e3a5f"/>
      <rect x="135" y="15" width="12" height="12" rx="2" fill="#818cf8"/>
      <rect x="135" y="30" width="12" height="12" rx="2" fill="#1e3a5f"/>
      <rect x="135" y="45" width="12" height="12" rx="2" fill="#4f46e5"/>
      <rect x="135" y="60" width="12" height="12" rx="2" fill="#6366f1"/>
      
      <rect x="150" y="0" width="12" height="12" rx="2" fill="#4f46e5"/>
      <rect x="150" y="15" width="12" height="12" rx="2" fill="#4f46e5"/>
      <rect x="150" y="30" width="12" height="12" rx="2" fill="#a5b4fc"/>
      <rect x="150" y="45" width="12" height="12" rx="2" fill="#1e3a5f"/>
      <rect x="150" y="60" width="12" height="12" rx="2" fill="#1e3a5f"/>
      
      <!-- More weeks -->
      <rect x="165" y="0" width="12" height="12" rx="2" fill="#1e3a5f"/>
      <rect x="165" y="15" width="12" height="12" rx="2" fill="#1e3a5f"/>
      <rect x="165" y="30" width="12" height="12" rx="2" fill="#4f46e5"/>
      <rect x="165" y="45" width="12" height="12" rx="2" fill="#6366f1"/>
      <rect x="165" y="60" width="12" height="12" rx="2" fill="#4f46e5"/>
      
      <!-- ... more columns to fill width ... -->
      <rect x="180" y="0" width="12" height="12" rx="2" fill="#818cf8"/>
      <rect x="180" y="15" width="12" height="12" rx="2" fill="#4f46e5"/>
      <rect x="180" y="30" width="12" height="12" rx="2" fill="#1e3a5f"/>
      <rect x="180" y="45" width="12" height="12" rx="2" fill="#1e3a5f"/>
      <rect x="180" y="60" width="12" height="12" rx="2" fill="#4f46e5"/>
      
      <rect x="195" y="0" width="12" height="12" rx="2" fill="#1e3a5f"/>
      <rect x="195" y="15" width="12" height="12" rx="2" fill="#6366f1"/>
      <rect x="195" y="30" width="12" height="12" rx="2" fill="#4f46e5"/>
      <rect x="195" y="45" width="12" height="12" rx="2" fill="#a5b4fc"/>
      <rect x="195" y="60" width="12" height="12" rx="2" fill="#1e3a5f"/>
      
      <!-- Last few columns -->
      <rect x="210" y="0" width="12" height="12" rx="2" fill="#4f46e5"/>
      <rect x="210" y="15" width="12" height="12" rx="2" fill="#1e3a5f"/>
      <rect x="210" y="30" width="12" height="12" rx="2" fill="#1e3a5f"/>
      <rect x="210" y="45" width="12" height="12" rx="2" fill="#4f46e5"/>
      <rect x="210" y="60" width="12" height="12" rx="2" fill="#818cf8"/>
      
      <rect x="225" y="0" width="12" height="12" rx="2" fill="#1e3a5f"/>
      <rect x="225" y="15" width="12" height="12" rx="2" fill="#4f46e5"/>
      <rect x="225" y="30" width="12" height="12" rx="2" fill="#6366f1"/>
      <rect x="225" y="45" width="12" height="12" rx="2" fill="#1e3a5f"/>
      <rect x="225" y="60" width="12" height="12" rx="2" fill="#4f46e5"/>
      
      <rect x="240" y="0" width="12" height="12" rx="2" fill="#6366f1"/>
      <rect x="240" y="15" width="12" height="12" rx="2" fill="#1e3a5f"/>
      <rect x="240" y="30" width="12" height="12" rx="2" fill="#4f46e5"/>
      <rect x="240" y="45" width="12" height="12" rx="2" fill="#4f46e5"/>
      <rect x="240" y="60" width="12" height="12" rx="2" fill="#1e3a5f"/>
      
      <rect x="255" y="0" width="12" height="12" rx="2" fill="#1e3a5f"/>
      <rect x="255" y="15" width="12" height="12" rx="2" fill="#818cf8"/>
      <rect x="255" y="30" width="12" height="12" rx="2" fill="#1e3a5f"/>
      <rect x="255" y="45" width="12" height="12" rx="2" fill="#6366f1"/>
      <rect x="255" y="60" width="12" height="12" rx="2" fill="#4f46e5"/>
      
      <rect x="270" y="0" width="12" height="12" rx="2" fill="#4f46e5"/>
      <rect x="270" y="15" width="12" height="12" rx="2" fill="#4f46e5"/>
      <rect x="270" y="30" width="12" height="12" rx="2" fill="#a5b4fc"/>
      <rect x="270" y="45" width="12" height="12" rx="2" fill="#1e3a5f"/>
      <rect x="270" y="60" width="12" height="12" rx="2" fill="#1e3a5f"/>
      
      <rect x="285" y="0" width="12" height="12" rx="2" fill="#1e3a5f"/>
      <rect x="285" y="15" width="12" height="12" rx="2" fill="#1e3a5f"/>
      <rect x="285" y="30" width="12" height="12" rx="2" fill="#4f46e5"/>
      <rect x="285" y="45" width="12" height="12" rx="2" fill="#818cf8"/>
      <rect x="285" y="60" width="12" height="12" rx="2" fill="#4f46e5"/>
      
      <rect x="300" y="0" width="12" height="12" rx="2" fill="#6366f1"/>
      <rect x="300" y="15" width="12" height="12" rx="2" fill="#4f46e5"/>
      <rect x="300" y="30" width="12" height="12" rx="2" fill="#1e3a5f"/>
      <rect x="300" y="45" width="12" height="12" rx="2" fill="#4f46e5"/>
      <rect x="300" y="60" width="12" height="12" rx="2" fill="#1e3a5f"/>
    </g>
  </g>
  
  <!-- Month labels -->
  <g font-family="Arial" font-size="9" fill="#a5b4fc">
    <text x="55" y="185">1月</text>
    <text x="120" y="185">3月</text>
    <text x="185" y="185">6月</text>
    <text x="250" y="185">9月</text>
    <text x="315" y="185">12月</text>
  </g>
  
  <!-- Legend -->
  <g transform="translate(120, 210)">
    <text x="0" y="10" font-family="Arial" font-size="9" fill="#a5b4fc">低</text>
    <rect x="20" y="0" width="15" height="15" rx="2" fill="#1e3a5f"/>
    <rect x="38" y="0" width="15" height="15" rx="2" fill="#4f46e5"/>
    <rect x="56" y="0" width="15" height="15" rx="2" fill="#6366f1"/>
    <rect x="74" y="0" width="15" height="15" rx="2" fill="#818cf8"/>
    <rect x="92" y="0" width="15" height="15" rx="2" fill="#a5b4fc"/>
    <text x="115" y="10" font-family="Arial" font-size="9" fill="#a5b4fc">高</text>
  </g>
  
  <text x="200" y="275" font-family="Arial" font-size="14" fill="white" text-anchor="middle" font-weight="bold">日历热图</text>
</svg>
