<svg xmlns="http://www.w3.org/2000/svg" viewBox="0 0 400 300">
  <defs><linearGradient id="bgGrad" x1="0%" y1="0%" x2="100%" y2="100%"><stop offset="0%" style="stop-color:#1e1b4b"/><stop offset="100%" style="stop-color:#312e81"/></linearGradient></defs>
  <rect width="400" height="300" fill="url(#bgGrad)"/>
  <!-- ACF bars -->
  <line x1="50" y1="140" x2="350" y2="140" stroke="#a5b4fc" stroke-width="1"/>
  <line x1="50" y1="100" x2="350" y2="100" stroke="#ef4444" stroke-width="1" stroke-dasharray="5,5"/>
  <line x1="50" y1="180" x2="350" y2="180" stroke="#ef4444" stroke-width="1" stroke-dasharray="5,5"/>
  <!-- Bars -->
  <line x1="70" y1="140" x2="70" y2="60" stroke="#4f46e5" stroke-width="4"/>
  <line x1="100" y1="140" x2="100" y2="80" stroke="#4f46e5" stroke-width="4"/>
  <line x1="130" y1="140" x2="130" y2="95" stroke="#4f46e5" stroke-width="4"/>
  <line x1="160" y1="140" x2="160" y2="110" stroke="#4f46e5" stroke-width="4"/>
  <line x1="190" y1="140" x2="190" y2="120" stroke="#4f46e5" stroke-width="4"/>
  <line x1="220" y1="140" x2="220" y2="130" stroke="#4f46e5" stroke-width="4"/>
  <line x1="250" y1="140" x2="250" y2="135" stroke="#4f46e5" stroke-width="4"/>
  <line x1="280" y1="140" x2="280" y2="155" stroke="#4f46e5" stroke-width="4"/>
  <line x1="310" y1="140" x2="310" y2="150" stroke="#4f46e5" stroke-width="4"/>
  <!-- Points -->
  <circle cx="70" cy="60" r="4" fill="#4f46e5"/>
  <circle cx="100" cy="80" r="4" fill="#4f46e5"/>
  <circle cx="130" cy="95" r="4" fill="#4f46e5"/>
  <circle cx="160" cy="110" r="4" fill="#4f46e5"/>
  <circle cx="190" cy="120" r="4" fill="#4f46e5"/>
  <circle cx="220" cy="130" r="4" fill="#4f46e5"/>
  <circle cx="250" cy="135" r="4" fill="#4f46e5"/>
  <circle cx="280" cy="155" r="4" fill="#4f46e5"/>
  <circle cx="310" cy="150" r="4" fill="#4f46e5"/>
  <!-- Axis -->
  <line x1="50" y1="220" x2="350" y2="220" stroke="#a5b4fc" stroke-width="2"/>
  <text x="200" y="275" font-family="Arial" font-size="14" fill="white" text-anchor="middle" font-weight="bold">自相关图 ACF/PACF</text>
</svg>
