<svg xmlns="http://www.w3.org/2000/svg" viewBox="0 0 400 300">
  <defs>
    <linearGradient id="bgGrad" x1="0%" y1="0%" x2="100%" y2="100%">
      <stop offset="0%" style="stop-color:#1e1b4b"/><stop offset="100%" style="stop-color:#312e81"/>
    </linearGradient>
  </defs>
  <rect width="400" height="300" fill="url(#bgGrad)"/>
  
  <!-- Category boxes -->
  <rect x="50" y="40" width="80" height="180" rx="5" fill="#4f46e5" opacity="0.1"/>
  <rect x="160" y="40" width="80" height="180" rx="5" fill="#10b981" opacity="0.1"/>
  <rect x="270" y="40" width="80" height="180" rx="5" fill="#f59e0b" opacity="0.1"/>
  
  <!-- Jittered points group 1 -->
  <g fill="#4f46e5">
    <circle cx="75" cy="80" r="4"/><circle cx="95" cy="90" r="4"/><circle cx="80" cy="110" r="4"/>
    <circle cx="110" cy="100" r="4"/><circle cx="85" cy="130" r="4"/><circle cx="100" cy="140" r="4"/>
    <circle cx="70" cy="150" r="4"/><circle cx="90" cy="160" r="4"/><circle cx="105" cy="170" r="4"/>
  </g>
  
  <!-- Jittered points group 2 -->
  <g fill="#10b981">
    <circle cx="180" cy="60" r="4"/><circle cx="200" cy="75" r="4"/><circle cx="190" cy="90" r="4"/>
    <circle cx="215" cy="85" r="4"/><circle cx="185" cy="110" r="4"/><circle cx="205" cy="120" r="4"/>
    <circle cx="175" cy="135" r="4"/><circle cx="195" cy="145" r="4"/><circle cx="210" cy="155" r="4"/>
  </g>
  
  <!-- Jittered points group 3 -->
  <g fill="#f59e0b">
    <circle cx="290" cy="100" r="4"/><circle cx="310" cy="115" r="4"/><circle cx="300" cy="130" r="4"/>
    <circle cx="325" cy="140" r="4"/><circle cx="285" cy="155" r="4"/><circle cx="305" cy="165" r="4"/>
    <circle cx="320" cy="175" r="4"/><circle cx="295" cy="185" r="4"/><circle cx="315" cy="195" r="4"/>
  </g>
  
  <!-- Axis -->
  <line x1="40" y1="230" x2="360" y2="230" stroke="#a5b4fc" stroke-width="2"/>
  
  <text x="200" y="280" font-family="Arial" font-size="14" fill="white" text-anchor="middle" font-weight="bold">抖动图与蜂群图</text>
</svg>
