<svg xmlns="http://www.w3.org/2000/svg" viewBox="0 0 400 240">
  <defs>
    <linearGradient id="bg3" x1="0%" y1="0%" x2="100%" y2="100%">
      <stop offset="0%" style="stop-color:#f093fb"/>
      <stop offset="100%" style="stop-color:#f5576c"/>
    </linearGradient>
  </defs>
  <rect width="400" height="240" fill="url(#bg3)"/>
  <!-- Bootstrap samples visualization -->
  <g opacity="0.3">
    <path d="M60 190 Q150 80 250 120 T360 100" stroke="#fff" stroke-width="1.5" fill="none"/>
    <path d="M60 185 Q150 90 250 130 T360 95" stroke="#fff" stroke-width="1.5" fill="none"/>
    <path d="M60 195 Q150 85 250 115 T360 105" stroke="#fff" stroke-width="1.5" fill="none"/>
  </g>
  <g opacity="0.5">
    <path d="M60 180 Q150 75 250 125 T360 110" stroke="#fff" stroke-width="2" fill="none"/>
    <path d="M60 175 Q150 95 250 135 T360 90" stroke="#fff" stroke-width="2" fill="none"/>
  </g>
  <!-- Main estimate -->
  <path d="M60 185 Q150 85 250 125 T360 100" stroke="#fff" stroke-width="3" fill="none"/>
  <!-- CI band indicator -->
  <rect x="330" y="85" width="40" height="30" rx="3" fill="rgba(255,255,255,0.3)" stroke="#fff"/>
  <text x="350" y="105" text-anchor="middle" fill="#fff" font-size="10">95%CI</text>
  <!-- Resampling arrows -->
  <g fill="#fff" opacity="0.7">
    <path d="M80 210 L90 200 L85 200 L85 180 L75 180 L75 200 L70 200 Z"/>
    <path d="M120 210 L130 200 L125 200 L125 180 L115 180 L115 200 L110 200 Z"/>
    <path d="M160 210 L170 200 L165 200 L165 180 L155 180 L155 200 L150 200 Z"/>
  </g>
  <text x="120" y="225" text-anchor="middle" fill="rgba(255,255,255,0.8)" font-size="9">Resample with replacement</text>
  <!-- Title -->
  <text x="200" y="35" text-anchor="middle" fill="#fff" font-size="20" font-weight="bold">Bootstrap方法</text>
  <text x="200" y="55" text-anchor="middle" fill="rgba(255,255,255,0.8)" font-size="12">Bootstrap &amp; Permutation Tests</text>
</svg>
