<svg xmlns="http://www.w3.org/2000/svg" viewBox="0 0 420 300">
  <defs>
    <linearGradient id="bg" x1="0%" y1="0%" x2="100%" y2="100%">
      <stop offset="0%" stop-color="#0f172a" />
      <stop offset="100%" stop-color="#1e293b" />
    </linearGradient>
  </defs>

  <rect width="420" height="300" fill="url(#bg)" />

  <g stroke="#334155" stroke-width="0.6" opacity="0.6">
    <line x1="50" y1="60" x2="380" y2="60" />
    <line x1="50" y1="110" x2="380" y2="110" />
    <line x1="50" y1="160" x2="380" y2="160" />
    <line x1="50" y1="210" x2="380" y2="210" />
  </g>

  <path d="M70,210 Q140,170 210,130 Q280,90 350,80" fill="none" stroke="#38bdf8" stroke-width="4" stroke-linecap="round" />
  <path d="M70,200 Q140,180 210,150 Q280,120 350,100" fill="none" stroke="#f97316" stroke-width="3" stroke-linecap="round" opacity="0.7" />

  <circle cx="70" cy="210" r="6" fill="#38bdf8" />
  <circle cx="140" cy="170" r="6" fill="#38bdf8" />
  <circle cx="210" cy="130" r="6" fill="#38bdf8" />
  <circle cx="280" cy="90" r="6" fill="#38bdf8" />
  <circle cx="350" cy="80" r="6" fill="#38bdf8" />

  <circle cx="70" cy="200" r="5" fill="#f97316" />
  <circle cx="140" cy="180" r="5" fill="#f97316" />
  <circle cx="210" cy="150" r="5" fill="#f97316" />
  <circle cx="280" cy="120" r="5" fill="#f97316" />
  <circle cx="350" cy="100" r="5" fill="#f97316" />

  <circle cx="210" cy="130" r="26" fill="none" stroke="#38bdf8" stroke-width="2" opacity="0.5" />
  <circle cx="210" cy="130" r="40" fill="none" stroke="#38bdf8" stroke-width="1.5" opacity="0.3" />

  <text x="210" y="36" text-anchor="middle" fill="#e2e8f0" font-family="Arial" font-size="16" font-weight="bold">gganimate</text>
  <text x="210" y="56" text-anchor="middle" fill="#94a3b8" font-family="Arial" font-size="12">Animated Visualization</text>

  <g fill="#94a3b8" font-family="Arial" font-size="10">
    <text x="62" y="250">T1</text>
    <text x="134" y="250">T2</text>
    <text x="206" y="250">T3</text>
    <text x="278" y="250">T4</text>
    <text x="350" y="250">T5</text>
  </g>
</svg>
