<svg xmlns="http://www.w3.org/2000/svg" width="1200" height="675" viewBox="0 0 1200 675">
  <defs>
    <linearGradient id="bg" x1="0" y1="0" x2="1" y2="1">
      <stop offset="0" stop-color="#eef2ff"/>
      <stop offset="1" stop-color="#ffffff"/>
    </linearGradient>
  </defs>
  <rect width="1200" height="675" fill="url(#bg)"/>
  <rect x="90" y="120" width="450" height="300" rx="18" fill="#ffffff" stroke="#e5e7eb"/>
  <rect x="120" y="150" width="70" height="220" fill="#4f46e5" opacity="0.85"/>
  <rect x="220" y="190" width="70" height="180" fill="#4f46e5" opacity="0.7"/>
  <rect x="320" y="230" width="70" height="140" fill="#4f46e5" opacity="0.55"/>
  <rect x="420" y="260" width="70" height="110" fill="#4f46e5" opacity="0.4"/>
  <circle cx="700" cy="200" r="10" fill="#111827"/>
  <circle cx="760" cy="200" r="10" fill="#111827"/>
  <circle cx="820" cy="200" r="10" fill="#111827"/>
  <circle cx="700" cy="260" r="10" fill="#111827"/>
  <circle cx="760" cy="260" r="10" fill="#111827"/>
  <circle cx="820" cy="260" r="10" fill="#d1d5db"/>
  <circle cx="700" cy="320" r="10" fill="#111827"/>
  <circle cx="760" cy="320" r="10" fill="#d1d5db"/>
  <circle cx="820" cy="320" r="10" fill="#111827"/>
  <rect x="640" y="150" width="240" height="240" rx="18" fill="#ffffff" stroke="#e5e7eb"/>
  <line x1="700" y1="200" x2="820" y2="200" stroke="#111827" stroke-width="3"/>
  <line x1="700" y1="260" x2="760" y2="260" stroke="#111827" stroke-width="3"/>
  <line x1="700" y1="320" x2="820" y2="320" stroke="#111827" stroke-width="3"/>
  <text x="90" y="520" font-family="Arial, sans-serif" font-size="42" fill="#111827">UpSet</text>
  <text x="250" y="520" font-family="Arial, sans-serif" font-size="42" fill="#6b7280">Intersection</text>
</svg>
