<svg xmlns="http://www.w3.org/2000/svg" width="1600" height="900" viewBox="0 0 1600 900">
  <defs>
    <linearGradient id="bg" x1="0" y1="0" x2="1" y2="1">
      <stop offset="0%" stop-color="#fef3c7"/>
      <stop offset="50%" stop-color="#fde68a"/>
      <stop offset="100%" stop-color="#fff7ed"/>
    </linearGradient>
    <linearGradient id="accent" x1="0" y1="0" x2="1" y2="1">
      <stop offset="0%" stop-color="#f97316"/>
      <stop offset="100%" stop-color="#ef4444"/>
    </linearGradient>
    <filter id="shadow" x="-20%" y="-20%" width="140%" height="140%">
      <feDropShadow dx="0" dy="12" stdDeviation="18" flood-color="#7c2d12" flood-opacity="0.2"/>
    </filter>
  </defs>
  <rect width="1600" height="900" fill="url(#bg)"/>
  <rect x="140" y="120" width="1320" height="660" rx="36" fill="#ffffff" filter="url(#shadow)"/>
  <rect x="180" y="170" width="1240" height="90" rx="18" fill="url(#accent)"/>
  <text x="220" y="230" font-family="Segoe UI, Arial, sans-serif" font-size="48" fill="#ffffff" font-weight="700">支持向量机 (SVM)</text>
  <text x="220" y="300" font-family="Segoe UI, Arial, sans-serif" font-size="28" fill="#431407">最大间隔与核函数的入门路径</text>
  <g fill="#f4f4f5">
    <rect x="220" y="360" width="420" height="26" rx="13" fill="#fed7aa"/>
    <rect x="220" y="410" width="520" height="26" rx="13" fill="#fed7aa"/>
    <rect x="220" y="460" width="480" height="26" rx="13" fill="#fed7aa"/>
  </g>
  <g stroke="#f97316" stroke-width="6" fill="none">
    <path d="M980 570 C1080 420, 1220 420, 1320 570"/>
    <path d="M980 640 C1080 490, 1220 490, 1320 640"/>
  </g>
  <text x="220" y="580" font-family="Segoe UI, Arial, sans-serif" font-size="22" fill="#7c2d12">Margin • Kernel • Classification</text>
</svg>
