<svg xmlns="http://www.w3.org/2000/svg" width="1600" height="900" viewBox="0 0 1600 900">
  <defs>
    <linearGradient id="bg" x1="0" y1="0" x2="1" y2="1">
      <stop offset="0%" stop-color="#fef2f2"/>
      <stop offset="50%" stop-color="#fee2e2"/>
      <stop offset="100%" stop-color="#fff7ed"/>
    </linearGradient>
    <linearGradient id="accent" x1="0" y1="0" x2="1" y2="1">
      <stop offset="0%" stop-color="#ef4444"/>
      <stop offset="100%" stop-color="#f97316"/>
    </linearGradient>
    <filter id="shadow" x="-20%" y="-20%" width="140%" height="140%">
      <feDropShadow dx="0" dy="12" stdDeviation="18" flood-color="#7f1d1d" flood-opacity="0.18"/>
    </filter>
  </defs>
  <rect width="1600" height="900" fill="url(#bg)"/>
  <rect x="140" y="120" width="1320" height="660" rx="36" fill="#ffffff" filter="url(#shadow)"/>
  <rect x="180" y="170" width="1240" height="90" rx="18" fill="url(#accent)"/>
  <text x="220" y="230" font-family="Segoe UI, Arial, sans-serif" font-size="48" fill="#ffffff" font-weight="700">目标试验模拟进阶</text>
  <text x="220" y="300" font-family="Segoe UI, Arial, sans-serif" font-size="28" fill="#7f1d1d">方案设计与敏感性分析</text>
  <g fill="#fee2e2">
    <rect x="220" y="360" width="420" height="26" rx="13"/>
    <rect x="220" y="410" width="520" height="26" rx="13"/>
    <rect x="220" y="460" width="480" height="26" rx="13"/>
  </g>
  <g fill="url(#accent)">
    <rect x="1040" y="360" width="80" height="220" rx="18" opacity="0.6"/>
    <rect x="1140" y="320" width="80" height="260" rx="18" opacity="0.5"/>
    <rect x="1240" y="400" width="80" height="180" rx="18" opacity="0.8"/>
  </g>
  <text x="220" y="580" font-family="Segoe UI, Arial, sans-serif" font-size="22" fill="#7f1d1d">Target Trial • Protocol • Sensitivity</text>
</svg>
