<svg xmlns="http://www.w3.org/2000/svg" viewBox="0 0 420 300">
  <defs>
    <linearGradient id="bg" x1="0%" y1="0%" x2="100%" y2="100%">
      <stop offset="0%" stop-color="#0b1f3a" />
      <stop offset="100%" stop-color="#1f2937" />
    </linearGradient>
  </defs>

  <rect width="420" height="300" fill="url(#bg)" />

  <g stroke="#334155" stroke-width="0.6" opacity="0.6">
    <line x1="50" y1="70" x2="370" y2="70" />
    <line x1="50" y1="130" x2="370" y2="130" />
    <line x1="50" y1="190" x2="370" y2="190" />
  </g>

  <g fill="#e2e8f0" font-family="Arial" font-size="12" font-weight="bold">
    <text x="60" y="60">T1</text>
    <text x="200" y="60">T2</text>
    <text x="340" y="60">T3</text>
  </g>

  <g stroke="#38bdf8" stroke-width="3" fill="none" stroke-linecap="round">
    <path d="M70,90 L200,110 L340,130" />
    <path d="M70,150 L200,160 L340,170" />
  </g>

  <g stroke="#f97316" stroke-width="2.5" fill="none" stroke-linecap="round" opacity="0.85">
    <path d="M70,150 L200,110" />
    <path d="M200,160 L340,130" />
  </g>

  <g stroke="#a855f7" stroke-width="2.5" fill="none" stroke-linecap="round" opacity="0.85">
    <path d="M70,90 L200,160" />
    <path d="M200,110 L340,170" />
  </g>

  <g fill="#38bdf8">
    <circle cx="70" cy="90" r="6" />
    <circle cx="200" cy="110" r="6" />
    <circle cx="340" cy="130" r="6" />
    <circle cx="70" cy="150" r="6" />
    <circle cx="200" cy="160" r="6" />
    <circle cx="340" cy="170" r="6" />
  </g>

  <text x="210" y="28" text-anchor="middle" fill="#e2e8f0" font-family="Arial" font-size="16" font-weight="bold">CLPM</text>
  <text x="210" y="46" text-anchor="middle" fill="#94a3b8" font-family="Arial" font-size="11">Cross-Lagged Panel Model</text>
</svg>
