<svg width="800" height="450" xmlns="http://www.w3.org/2000/svg">
  <defs>
    <linearGradient id="bg2026" x1="0%" y1="0%" x2="100%" y2="100%">
      <stop offset="0%" style="stop-color:#00b4db"/>
      <stop offset="100%" style="stop-color:#0083b0"/>
    </linearGradient>
  </defs>
  <rect width="800" height="450" fill="url(#bg2026)"/>
  
  <!-- Scatter points -->
  <circle cx="150" cy="250" r="8" fill="rgba(255,255,255,0.7)"/>
  <circle cx="200" cy="220" r="12" fill="rgba(255,255,255,0.8)"/>
  <circle cx="250" cy="200" r="6" fill="rgba(255,255,255,0.6)"/>
  <circle cx="280" cy="180" r="10" fill="rgba(255,255,255,0.7)"/>
  <circle cx="330" cy="170" r="8" fill="rgba(255,255,255,0.8)"/>
  <circle cx="380" cy="140" r="14" fill="rgba(255,255,255,0.9)"/>
  <circle cx="420" cy="130" r="7" fill="rgba(255,255,255,0.6)"/>
  <circle cx="470" cy="110" r="11" fill="rgba(255,255,255,0.8)"/>
  <circle cx="520" cy="95" r="9" fill="rgba(255,255,255,0.7)"/>
  <circle cx="570" cy="80" r="15" fill="rgba(255,255,255,0.9)"/>
  <circle cx="620" cy="70" r="8" fill="rgba(255,255,255,0.7)"/>
  <circle cx="670" cy="55" r="10" fill="rgba(255,255,255,0.8)"/>
  
  <!-- Trend line -->
  <line x1="130" y1="260" x2="690" y2="45" stroke="white" stroke-width="3" stroke-dasharray="8,4"/>
  
  <!-- Confidence band -->
  <path d="M130 280 Q400 150 690 70 L690 20 Q400 100 130 240 Z" 
        fill="rgba(255,255,255,0.1)"/>
  
  <!-- Title -->
  <text x="400" y="350" fill="white" font-size="38" font-weight="bold" text-anchor="middle" font-family="Arial">散点图与趋势线</text>
  <text x="400" y="395" fill="rgba(255,255,255,0.8)" font-size="20" text-anchor="middle" font-family="Arial">Scatter Plot &amp; Regression</text>
</svg>
