<svg width="800" height="450" xmlns="http://www.w3.org/2000/svg">
  <defs>
    <linearGradient id="bg2027" x1="0%" y1="0%" x2="100%" y2="100%">
      <stop offset="0%" style="stop-color:#f093fb"/>
      <stop offset="100%" style="stop-color:#f5576c"/>
    </linearGradient>
  </defs>
  <rect width="800" height="450" fill="url(#bg2027)"/>
  
  <!-- Histogram bars -->
  <rect x="100" y="200" width="50" height="60" fill="rgba(255,255,255,0.4)" rx="3"/>
  <rect x="160" y="150" width="50" height="110" fill="rgba(255,255,255,0.5)" rx="3"/>
  <rect x="220" y="100" width="50" height="160" fill="rgba(255,255,255,0.7)" rx="3"/>
  <rect x="280" y="70" width="50" height="190" fill="rgba(255,255,255,0.85)" rx="3"/>
  <rect x="340" y="50" width="50" height="210" fill="rgba(255,255,255,0.95)" rx="3"/>
  <rect x="400" y="80" width="50" height="180" fill="rgba(255,255,255,0.8)" rx="3"/>
  <rect x="460" y="120" width="50" height="140" fill="rgba(255,255,255,0.6)" rx="3"/>
  <rect x="520" y="170" width="50" height="90" fill="rgba(255,255,255,0.45)" rx="3"/>
  <rect x="580" y="210" width="50" height="50" fill="rgba(255,255,255,0.35)" rx="3"/>
  <rect x="640" y="230" width="50" height="30" fill="rgba(255,255,255,0.25)" rx="3"/>
  
  <!-- Density curve -->
  <path d="M100 260 Q200 200 300 100 Q400 30 500 100 Q600 180 700 250" 
        stroke="white" stroke-width="4" fill="none" stroke-linecap="round"/>
  
  <!-- Title -->
  <text x="400" y="340" fill="white" font-size="38" font-weight="bold" text-anchor="middle" font-family="Arial">直方图与密度图</text>
  <text x="400" y="385" fill="rgba(255,255,255,0.8)" font-size="20" text-anchor="middle" font-family="Arial">Histogram &amp; Density Plot</text>
</svg>
