<svg xmlns="http://www.w3.org/2000/svg" viewBox="0 0 400 250">
  <defs>
    <linearGradient id="bgGrad2" x1="0%" y1="0%" x2="100%" y2="100%">
      <stop offset="0%" style="stop-color:#0f3460;stop-opacity:1" />
      <stop offset="100%" style="stop-color:#16213e;stop-opacity:1" />
    </linearGradient>
  </defs>
  <rect width="400" height="250" fill="url(#bgGrad2)"/>
  <!-- Stacked areas -->
  <path d="M 40 200 Q 100 190, 160 185 T 280 170 T 360 160 L 360 200 L 40 200 Z" fill="#4e79a7" fill-opacity="0.8"/>
  <path d="M 40 185 Q 100 170, 160 160 T 280 140 T 360 125 L 360 160 Q 280 170, 160 185 T 40 200 Z" fill="#f28e2b" fill-opacity="0.8"/>
  <path d="M 40 160 Q 100 140, 160 130 T 280 100 T 360 80 L 360 125 Q 280 140, 160 160 T 40 185 Z" fill="#59a14f" fill-opacity="0.8"/>
  <path d="M 40 130 Q 100 100, 160 90 T 280 60 T 360 45 L 360 80 Q 280 100, 160 130 T 40 160 Z" fill="#e15759" fill-opacity="0.8"/>
  <!-- Y-axis -->
  <line x1="40" y1="40" x2="40" y2="200" stroke="#ffffff" stroke-opacity="0.5" stroke-width="1"/>
  <!-- X-axis -->
  <line x1="40" y1="200" x2="360" y2="200" stroke="#ffffff" stroke-opacity="0.5" stroke-width="1"/>
  <!-- Legend -->
  <rect x="270" y="30" width="12" height="12" fill="#e15759"/>
  <rect x="270" y="48" width="12" height="12" fill="#59a14f"/>
  <rect x="270" y="66" width="12" height="12" fill="#f28e2b"/>
  <rect x="270" y="84" width="12" height="12" fill="#4e79a7"/>
  <text x="288" y="40" font-family="Arial" font-size="10" fill="#ffffff">D</text>
  <text x="288" y="58" font-family="Arial" font-size="10" fill="#ffffff">C</text>
  <text x="288" y="76" font-family="Arial" font-size="10" fill="#ffffff">B</text>
  <text x="288" y="94" font-family="Arial" font-size="10" fill="#ffffff">A</text>
  <!-- Title -->
  <text x="200" y="230" font-family="Arial, sans-serif" font-size="16" fill="#ffffff" text-anchor="middle" font-weight="bold">面积图与堆叠可视化</text>
</svg>
