<svg xmlns="http://www.w3.org/2000/svg" viewBox="0 0 400 250">
  <defs>
    <linearGradient id="bgGrad3" x1="0%" y1="0%" x2="100%" y2="100%">
      <stop offset="0%" style="stop-color:#1a1a2e;stop-opacity:1" />
      <stop offset="100%" style="stop-color:#0f3460;stop-opacity:1" />
    </linearGradient>
  </defs>
  <rect width="400" height="250" fill="url(#bgGrad3)"/>
  
  <!-- Panel A: Box plot -->
  <rect x="20" y="25" width="110" height="90" fill="#ffffff" fill-opacity="0.05" rx="5"/>
  <text x="25" y="40" font-family="Arial" font-size="10" fill="#ffffff" font-weight="bold">A</text>
  <rect x="35" y="50" width="20" height="40" fill="#4e79a7" fill-opacity="0.7"/>
  <line x1="45" y1="55" x2="45" y2="85" stroke="#ffffff" stroke-width="2"/>
  <rect x="65" y="45" width="20" height="50" fill="#f28e2b" fill-opacity="0.7"/>
  <line x1="75" y1="50" x2="75" y2="90" stroke="#ffffff" stroke-width="2"/>
  <rect x="95" y="55" width="20" height="35" fill="#59a14f" fill-opacity="0.7"/>
  
  <!-- Panel B: Scatter -->
  <rect x="140" y="25" width="110" height="90" fill="#ffffff" fill-opacity="0.05" rx="5"/>
  <text x="145" y="40" font-family="Arial" font-size="10" fill="#ffffff" font-weight="bold">B</text>
  <circle cx="160" cy="80" r="3" fill="#4e79a7"/>
  <circle cx="175" cy="70" r="3" fill="#4e79a7"/>
  <circle cx="190" cy="60" r="3" fill="#4e79a7"/>
  <circle cx="205" cy="55" r="3" fill="#f28e2b"/>
  <circle cx="220" cy="50" r="3" fill="#f28e2b"/>
  <circle cx="235" cy="45" r="3" fill="#59a14f"/>
  <line x1="155" y1="85" x2="240" y2="42" stroke="#e15759" stroke-width="1.5" stroke-opacity="0.7"/>
  
  <!-- Panel C: Line chart -->
  <rect x="260" y="25" width="120" height="90" fill="#ffffff" fill-opacity="0.05" rx="5"/>
  <text x="265" y="40" font-family="Arial" font-size="10" fill="#ffffff" font-weight="bold">C</text>
  <path d="M 275 90 L 295 75 L 315 70 L 335 55 L 355 50 L 365 45" stroke="#4e79a7" stroke-width="2" fill="none"/>
  <path d="M 275 95 L 295 85 L 315 80 L 335 75 L 355 70 L 365 65" stroke="#f28e2b" stroke-width="2" fill="none"/>
  
  <!-- Panel D: Bar chart -->
  <rect x="20" y="125" width="110" height="90" fill="#ffffff" fill-opacity="0.05" rx="5"/>
  <text x="25" y="140" font-family="Arial" font-size="10" fill="#ffffff" font-weight="bold">D</text>
  <rect x="35" y="165" width="18" height="40" fill="#4e79a7"/>
  <rect x="58" y="155" width="18" height="50" fill="#f28e2b"/>
  <rect x="81" y="145" width="18" height="60" fill="#59a14f"/>
  <rect x="104" y="160" width="18" height="45" fill="#e15759"/>
  
  <!-- Panel E: Pie/Donut -->
  <rect x="140" y="125" width="110" height="90" fill="#ffffff" fill-opacity="0.05" rx="5"/>
  <text x="145" y="140" font-family="Arial" font-size="10" fill="#ffffff" font-weight="bold">E</text>
  <circle cx="195" cy="175" r="30" fill="none" stroke="#4e79a7" stroke-width="15" stroke-dasharray="47 141"/>
  <circle cx="195" cy="175" r="30" fill="none" stroke="#f28e2b" stroke-width="15" stroke-dasharray="47 141" transform="rotate(120 195 175)"/>
  <circle cx="195" cy="175" r="30" fill="none" stroke="#59a14f" stroke-width="15" stroke-dasharray="47 141" transform="rotate(240 195 175)"/>
  
  <!-- Panel F: Table -->
  <rect x="260" y="125" width="120" height="90" fill="#ffffff" fill-opacity="0.05" rx="5"/>
  <text x="265" y="140" font-family="Arial" font-size="10" fill="#ffffff" font-weight="bold">F</text>
  <line x1="270" y1="155" x2="370" y2="155" stroke="#ffffff" stroke-opacity="0.3"/>
  <line x1="270" y1="170" x2="370" y2="170" stroke="#ffffff" stroke-opacity="0.3"/>
  <line x1="270" y1="185" x2="370" y2="185" stroke="#ffffff" stroke-opacity="0.3"/>
  <line x1="310" y1="145" x2="310" y2="205" stroke="#ffffff" stroke-opacity="0.3"/>
  
  <!-- Title -->
  <text x="200" y="235" font-family="Arial, sans-serif" font-size="16" fill="#ffffff" text-anchor="middle" font-weight="bold">复杂组合图与发表级图表</text>
</svg>
