<svg width="800" height="450" xmlns="http://www.w3.org/2000/svg">
  <defs>
    <linearGradient id="bg3002" x1="0%" y1="0%" x2="100%" y2="100%">
      <stop offset="0%" style="stop-color:#1e3c72"/>
      <stop offset="100%" style="stop-color:#2a5298"/>
    </linearGradient>
  </defs>
  <rect width="800" height="450" fill="url(#bg3002)"/>
  
  <!-- Table representation -->
  <rect x="150" y="80" width="500" height="200" fill="rgba(255,255,255,0.1)" rx="10" stroke="white" stroke-width="2"/>
  
  <!-- Header row -->
  <rect x="150" y="80" width="500" height="40" fill="rgba(255,255,255,0.2)" rx="10 10 0 0"/>
  <text x="230" y="108" fill="white" font-size="16" font-weight="bold" text-anchor="middle">data.table</text>
  <text x="400" y="108" fill="white" font-size="16" font-weight="bold" text-anchor="middle">tibble</text>
  <text x="570" y="108" fill="white" font-size="16" font-weight="bold" text-anchor="middle">data.frame</text>
  
  <!-- Speed row -->
  <line x1="150" y1="160" x2="650" y2="160" stroke="rgba(255,255,255,0.3)" stroke-width="1"/>
  <text x="180" y="145" fill="rgba(255,255,255,0.7)" font-size="14">速度</text>
  <text x="230" y="145" fill="#22c55e" font-size="18" font-weight="bold" text-anchor="middle">★★★</text>
  <text x="400" y="145" fill="#fbbf24" font-size="18" text-anchor="middle">★★</text>
  <text x="570" y="145" fill="#ef4444" font-size="18" text-anchor="middle">★</text>
  
  <!-- Syntax row -->
  <line x1="150" y1="200" x2="650" y2="200" stroke="rgba(255,255,255,0.3)" stroke-width="1"/>
  <text x="180" y="185" fill="rgba(255,255,255,0.7)" font-size="14">语法</text>
  <text x="230" y="185" fill="white" font-size="14" text-anchor="middle">DT[i, j, by]</text>
  <text x="400" y="185" fill="white" font-size="14" text-anchor="middle">tidyverse</text>
  <text x="570" y="185" fill="white" font-size="14" text-anchor="middle">Base R</text>
  
  <!-- Memory row -->
  <text x="180" y="225" fill="rgba(255,255,255,0.7)" font-size="14">内存</text>
  <text x="230" y="225" fill="#22c55e" font-size="14" text-anchor="middle">最优</text>
  <text x="400" y="225" fill="#fbbf24" font-size="14" text-anchor="middle">一般</text>
  <text x="570" y="225" fill="#fbbf24" font-size="14" text-anchor="middle">一般</text>
  
  <!-- Title -->
  <text x="400" y="340" fill="white" font-size="36" font-weight="bold" text-anchor="middle" font-family="Arial">data.table 完全指南</text>
  <text x="400" y="385" fill="rgba(255,255,255,0.8)" font-size="18" text-anchor="middle" font-family="Arial">高性能数据处理对比</text>
</svg>
