<svg xmlns="http://www.w3.org/2000/svg" width="1600" height="900" viewBox="0 0 1600 900">
  <defs>
    <linearGradient id="bg" x1="0" y1="0" x2="1" y2="1">
      <stop offset="0%" stop-color="#ecfdf3"/>
      <stop offset="50%" stop-color="#d1fae5"/>
      <stop offset="100%" stop-color="#f0fdf4"/>
    </linearGradient>
    <linearGradient id="accent" x1="0" y1="0" x2="1" y2="1">
      <stop offset="0%" stop-color="#22c55e"/>
      <stop offset="100%" stop-color="#10b981"/>
    </linearGradient>
    <filter id="shadow" x="-20%" y="-20%" width="140%" height="140%">
      <feDropShadow dx="0" dy="12" stdDeviation="18" flood-color="#0f172a" flood-opacity="0.16"/>
    </filter>
  </defs>
  <rect width="1600" height="900" fill="url(#bg)"/>
  <rect x="140" y="120" width="1320" height="660" rx="36" fill="#ffffff" filter="url(#shadow)"/>
  <rect x="180" y="170" width="1240" height="90" rx="18" fill="url(#accent)"/>
  <text x="220" y="230" font-family="Segoe UI, Arial, sans-serif" font-size="48" fill="#ffffff" font-weight="700">tidytable 数据处理</text>
  <text x="220" y="300" font-family="Segoe UI, Arial, sans-serif" font-size="28" fill="#065f46">dplyr 语法 + data.table 性能</text>
  <g fill="#dcfce7">
    <rect x="220" y="360" width="420" height="26" rx="13"/>
    <rect x="220" y="410" width="520" height="26" rx="13"/>
    <rect x="220" y="460" width="480" height="26" rx="13"/>
  </g>
  <g fill="url(#accent)">
    <rect x="1020" y="380" width="80" height="200" rx="18" opacity="0.6"/>
    <rect x="1130" y="340" width="80" height="240" rx="18" opacity="0.5"/>
    <rect x="1240" y="420" width="80" height="160" rx="18" opacity="0.8"/>
  </g>
  <text x="220" y="580" font-family="Segoe UI, Arial, sans-serif" font-size="22" fill="#065f46">Fast Data Pipelines • tidyverse Style • data.table Engine</text>
</svg>
