<svg xmlns="http://www.w3.org/2000/svg" width="1200" height="675" viewBox="0 0 1200 675">
  <defs>
    <linearGradient id="bg-ca" x1="0%" y1="0%" x2="100%" y2="100%">
      <stop offset="0%" stop-color="#0f172a" />
      <stop offset="100%" stop-color="#1e40af" />
    </linearGradient>
  </defs>
  
  <!-- 背景 -->
  <rect width="1200" height="675" fill="url(#bg-ca)" />
  
  <!-- 装饰性网格图案 (左下) -->
  <g opacity="0.25" stroke="#60a5fa" stroke-width="2" fill="none">
    <rect x="80" y="480" width="50" height="50" />
    <rect x="130" y="480" width="50" height="50" />
    <rect x="180" y="480" width="50" height="50" />
    <rect x="230" y="480" width="50" height="50" />
    <rect x="80" y="530" width="50" height="50" />
    <rect x="130" y="530" width="50" height="50" fill="#0ea5e9" opacity="0.6" />
    <rect x="180" y="530" width="50" height="50" fill="#0ea5e9" opacity="0.6" />
    <rect x="230" y="530" width="50" height="50" />
    <rect x="80" y="580" width="50" height="50" />
    <rect x="130" y="580" width="50" height="50" fill="#0ea5e9" opacity="0.6" />
    <rect x="180" y="580" width="50" height="50" />
    <rect x="230" y="580" width="50" height="50" />
  </g>
  
  <!-- 装饰性网格图案 (右上) -->
  <g opacity="0.2" stroke="#93c5fd" stroke-width="2" fill="none">
    <rect x="900" y="80" width="40" height="40" />
    <rect x="940" y="80" width="40" height="40" fill="#fbbf24" opacity="0.5" />
    <rect x="980" y="80" width="40" height="40" />
    <rect x="1020" y="80" width="40" height="40" fill="#fbbf24" opacity="0.5" />
    <rect x="1060" y="80" width="40" height="40" />
    <rect x="900" y="120" width="40" height="40" fill="#fbbf24" opacity="0.5" />
    <rect x="940" y="120" width="40" height="40" />
    <rect x="980" y="120" width="40" height="40" fill="#fbbf24" opacity="0.5" />
    <rect x="1020" y="120" width="40" height="40" />
    <rect x="1060" y="120" width="40" height="40" fill="#fbbf24" opacity="0.5" />
  </g>
  
  <!-- 中文标题 -->
  <text x="600" y="300" font-family="Arial, sans-serif, SimHei, Microsoft YaHei" 
        font-size="72" font-weight="bold" fill="white" text-anchor="middle">
    元胞自动机
  </text>
  
  <!-- 英文副标题 -->
  <text x="600" y="370" font-family="Arial, sans-serif" font-size="36" 
        fill="#93c5fd" text-anchor="middle">
    Cellular Automata
  </text>
  
  <!-- 副标题文字 -->
  <text x="600" y="440" font-family="Arial, sans-serif, SimHei, Microsoft YaHei" 
        font-size="24" fill="#e0f2fe" text-anchor="middle">
    从理论基础到R语言实现
  </text>
</svg>
