<svg xmlns="http://www.w3.org/2000/svg" width="1200" height="675" viewBox="0 0 1200 675">
  <defs>
    <linearGradient id="bg" x1="0" y1="0" x2="1" y2="1">
      <stop offset="0" stop-color="#fff7ed"/>
      <stop offset="1" stop-color="#ffffff"/>
    </linearGradient>
  </defs>
  <rect width="1200" height="675" fill="url(#bg)"/>
  <rect x="120" y="160" width="140" height="320" rx="18" fill="#fde68a" stroke="#f59e0b"/>
  <rect x="530" y="130" width="140" height="360" rx="18" fill="#bfdbfe" stroke="#2563eb"/>
  <rect x="920" y="180" width="140" height="300" rx="18" fill="#bbf7d0" stroke="#16a34a"/>
  <path d="M260 210 C 380 190, 420 190, 530 210 L 530 260 C 420 240, 380 240, 260 260 Z" fill="#f59e0b" opacity="0.6"/>
  <path d="M260 300 C 380 300, 430 320, 530 340 L 530 390 C 430 370, 380 350, 260 350 Z" fill="#f97316" opacity="0.55"/>
  <path d="M670 220 C 780 220, 820 210, 920 230 L 920 280 C 820 260, 780 250, 670 250 Z" fill="#2563eb" opacity="0.55"/>
  <path d="M670 320 C 780 330, 830 340, 920 360 L 920 420 C 830 400, 780 380, 670 370 Z" fill="#0ea5e9" opacity="0.5"/>
  <text x="120" y="520" font-family="Arial, sans-serif" font-size="42" fill="#111827">Alluvial</text>
  <text x="360" y="520" font-family="Arial, sans-serif" font-size="42" fill="#6b7280">Flow</text>
</svg>
