<svg xmlns="http://www.w3.org/2000/svg" viewBox="0 0 400 300">
  <defs>
    <linearGradient id="bgGrad" x1="0%" y1="0%" x2="100%" y2="100%">
      <stop offset="0%" style="stop-color:#1e1b4b"/><stop offset="100%" style="stop-color:#312e81"/>
    </linearGradient>
  </defs>
  <rect width="400" height="300" fill="url(#bgGrad)"/>
  
  <!-- Donut chart -->
  <g transform="translate(200, 140)">
    <!-- Outer ring segments -->
    <path d="M0,-80 A80,80 0 0,1 69.3,-40 L46.2,-26.7 A53,53 0 0,0 0,-53 Z" fill="#4f46e5"/>
    <path d="M69.3,-40 A80,80 0 0,1 69.3,40 L46.2,26.7 A53,53 0 0,0 46.2,-26.7 Z" fill="#10b981"/>
    <path d="M69.3,40 A80,80 0 0,1 -40,69.3 L-26.7,46.2 A53,53 0 0,0 46.2,26.7 Z" fill="#f59e0b"/>
    <path d="M-40,69.3 A80,80 0 0,1 0,-80 L0,-53 A53,53 0 0,0 -26.7,46.2 Z" fill="#94a3b8"/>
    
    <!-- Center circle (donut hole) -->
    <circle cx="0" cy="0" r="40" fill="#1e1b4b"/>
    
    <!-- Center text -->
    <text x="0" y="5" font-family="Arial" font-size="16" fill="white" text-anchor="middle" font-weight="bold">100%</text>
  </g>
  
  <text x="200" y="275" font-family="Arial" font-size="14" fill="white" text-anchor="middle" font-weight="bold">环形图与甜甜圈图</text>
</svg>
