<svg xmlns="http://www.w3.org/2000/svg" viewBox="0 0 400 300">
  <defs><linearGradient id="bgGrad" x1="0%" y1="0%" x2="100%" y2="100%"><stop offset="0%" style="stop-color:#1e1b4b"/><stop offset="100%" style="stop-color:#312e81"/></linearGradient></defs>
  <rect width="400" height="300" fill="url(#bgGrad)"/>
  <!-- Confidence ribbon -->
  <path d="M50,180 Q100,160 150,140 T250,100 T350,80 L350,140 Q300,160 250,160 T150,180 T50,200 Z" fill="#4f46e5" opacity="0.3"/>
  <!-- Center line -->
  <path d="M50,190 Q100,170 150,160 T250,130 T350,110" fill="none" stroke="#4f46e5" stroke-width="3"/>
  <!-- Points -->
  <circle cx="50" cy="190" r="4" fill="#4f46e5"/>
  <circle cx="100" cy="170" r="4" fill="#4f46e5"/>
  <circle cx="150" cy="160" r="4" fill="#4f46e5"/>
  <circle cx="200" cy="145" r="4" fill="#4f46e5"/>
  <circle cx="250" cy="130" r="4" fill="#4f46e5"/>
  <circle cx="300" cy="120" r="4" fill="#4f46e5"/>
  <circle cx="350" cy="110" r="4" fill="#4f46e5"/>
  <!-- Axis -->
  <line x1="40" y1="220" x2="360" y2="220" stroke="#a5b4fc" stroke-width="2"/>
  <text x="200" y="275" font-family="Arial" font-size="14" fill="white" text-anchor="middle" font-weight="bold">置信区间图</text>
</svg>
