<svg xmlns="http://www.w3.org/2000/svg" viewBox="0 0 400 300">
  <defs>
    <linearGradient id="bgGrad" x1="0%" y1="0%" x2="100%" y2="100%">
      <stop offset="0%" style="stop-color:#1e1b4b"/><stop offset="100%" style="stop-color:#312e81"/>
    </linearGradient>
  </defs>
  <rect width="400" height="300" fill="url(#bgGrad)"/>
  
  <!-- Bullet chart 1 -->
  <rect x="80" y="60" width="280" height="30" fill="#475569" rx="3"/>
  <rect x="80" y="60" width="220" height="30" fill="#64748b" rx="3"/>
  <rect x="80" y="60" width="160" height="30" fill="#94a3b8" rx="3"/>
  <rect x="80" y="68" width="200" height="14" fill="#4f46e5" rx="2"/>
  <line x1="260" y1="55" x2="260" y2="95" stroke="white" stroke-width="3"/>
  
  <!-- Bullet chart 2 -->
  <rect x="80" y="110" width="280" height="30" fill="#475569" rx="3"/>
  <rect x="80" y="110" width="220" height="30" fill="#64748b" rx="3"/>
  <rect x="80" y="110" width="160" height="30" fill="#94a3b8" rx="3"/>
  <rect x="80" y="118" width="180" height="14" fill="#10b981" rx="2"/>
  <line x1="200" y1="105" x2="200" y2="145" stroke="white" stroke-width="3"/>
  
  <!-- Bullet chart 3 -->
  <rect x="80" y="160" width="280" height="30" fill="#475569" rx="3"/>
  <rect x="80" y="160" width="220" height="30" fill="#64748b" rx="3"/>
  <rect x="80" y="160" width="160" height="30" fill="#94a3b8" rx="3"/>
  <rect x="80" y="168" width="140" height="14" fill="#f59e0b" rx="2"/>
  <line x1="230" y1="155" x2="230" y2="195" stroke="white" stroke-width="3"/>
  
  <!-- Labels -->
  <text x="50" y="80" font-family="Arial" font-size="10" fill="#a5b4fc" text-anchor="end">销售</text>
  <text x="50" y="130" font-family="Arial" font-size="10" fill="#a5b4fc" text-anchor="end">毛利</text>
  <text x="50" y="180" font-family="Arial" font-size="10" fill="#a5b4fc" text-anchor="end">满意度</text>
  
  <text x="200" y="275" font-family="Arial" font-size="14" fill="white" text-anchor="middle" font-weight="bold">子弹图</text>
</svg>
