<svg xmlns="http://www.w3.org/2000/svg" viewBox="0 0 400 240">
  <defs>
    <linearGradient id="bg1" x1="0%" y1="0%" x2="100%" y2="100%">
      <stop offset="0%" style="stop-color:#667eea"/>
      <stop offset="100%" style="stop-color:#764ba2"/>
    </linearGradient>
  </defs>
  <rect width="400" height="240" fill="url(#bg1)"/>
  <!-- Competing lines -->
  <path d="M40 180 Q100 180 120 150 T180 100 T240 70 T300 50" stroke="#fff" stroke-width="3" fill="none" opacity="0.9"/>
  <path d="M40 180 Q100 180 130 160 T200 140 T280 130 T360 120" stroke="#ffd700" stroke-width="3" fill="none" opacity="0.9"/>
  <path d="M40 180 Q100 180 140 170 T220 165 T300 160" stroke="#ff6b6b" stroke-width="3" fill="none" opacity="0.9" stroke-dasharray="8,4"/>
  <!-- Points -->
  <circle cx="40" cy="180" r="6" fill="#fff"/>
  <circle cx="300" cy="50" r="5" fill="#fff"/>
  <circle cx="360" cy="120" r="5" fill="#ffd700"/>
  <!-- Legend -->
  <rect x="260" y="180" width="20" height="3" fill="#fff"/>
  <text x="285" y="185" fill="#fff" font-size="10">Event A</text>
  <rect x="260" y="195" width="20" height="3" fill="#ffd700"/>
  <text x="285" y="200" fill="#fff" font-size="10">Event B</text>
  <!-- Title -->
  <text x="200" y="35" text-anchor="middle" fill="#fff" font-size="20" font-weight="bold">竞争风险分析</text>
  <text x="200" y="55" text-anchor="middle" fill="rgba(255,255,255,0.8)" font-size="12">Competing Risks Analysis</text>
</svg>
