<svg xmlns="http://www.w3.org/2000/svg" width="1280" height="720" viewBox="0 0 1280 720">
  <defs>
    <linearGradient id="bg" x1="0" y1="0" x2="1" y2="1">
      <stop offset="0%" stop-color="#f5f7fb"/>
      <stop offset="100%" stop-color="#e1e8f5"/>
    </linearGradient>
  </defs>
  <rect width="1280" height="720" fill="url(#bg)"/>
  <circle cx="220" cy="180" r="80" fill="#d5e3f6"/>
  <circle cx="1060" cy="140" r="120" fill="#c8d9f3" opacity="0.7"/>
  <circle cx="1040" cy="560" r="160" fill="#c8d9f3" opacity="0.5"/>
  <rect x="160" y="120" width="960" height="480" rx="28" fill="#ffffff" opacity="0.92"/>
  <g fill="#415a77" font-family="'Segoe UI', 'PingFang SC', 'Microsoft YaHei', sans-serif">
    <text x="240" y="280" font-size="54" font-weight="600">janitor 数据清洗实战</text>
    <text x="240" y="340" font-size="28">列名规范 · 空值清理 · 重复记录</text>
  </g>
  <g transform="translate(240 400)" fill="#3a6ea5">
    <rect x="0" y="0" width="120" height="18" rx="9"/>
    <rect x="0" y="40" width="220" height="18" rx="9" opacity="0.85"/>
    <rect x="0" y="80" width="180" height="18" rx="9" opacity="0.7"/>
    <rect x="0" y="120" width="260" height="18" rx="9" opacity="0.55"/>
  </g>
  <g transform="translate(880 340)" stroke="#3a6ea5" stroke-width="12" stroke-linecap="round" fill="none">
    <path d="M20 0h120"/>
    <path d="M20 60h180"/>
    <path d="M20 120h140"/>
  </g>
  <g transform="translate(980 280)" fill="#3a6ea5">
    <circle cx="20" cy="20" r="14"/>
    <circle cx="20" cy="80" r="14"/>
    <circle cx="20" cy="140" r="14"/>
  </g>
</svg>
