<svg xmlns="http://www.w3.org/2000/svg" viewBox="0 0 800 400">
  <defs>
    <linearGradient id="bg2" x1="0%" y1="0%" x2="100%" y2="100%">
      <stop offset="0%" style="stop-color:#f97316"/>
      <stop offset="100%" style="stop-color:#ef4444"/>
    </linearGradient>
  </defs>
  <rect width="800" height="400" fill="url(#bg2)"/>
  
  <!-- Missing data grid -->
  <g transform="translate(200, 130)">
    <rect x="0" y="0" width="40" height="30" fill="rgba(255,255,255,0.8)" rx="4"/>
    <rect x="50" y="0" width="40" height="30" fill="rgba(255,255,255,0.3)" rx="4" stroke-dasharray="4"/>
    <rect x="100" y="0" width="40" height="30" fill="rgba(255,255,255,0.8)" rx="4"/>
    <rect x="150" y="0" width="40" height="30" fill="rgba(255,255,255,0.8)" rx="4"/>
    
    <rect x="0" y="40" width="40" height="30" fill="rgba(255,255,255,0.8)" rx="4"/>
    <rect x="50" y="40" width="40" height="30" fill="rgba(255,255,255,0.8)" rx="4"/>
    <rect x="100" y="40" width="40" height="30" fill="rgba(255,255,255,0.3)" rx="4" stroke-dasharray="4"/>
    <rect x="150" y="40" width="40" height="30" fill="rgba(255,255,255,0.8)" rx="4"/>
    
    <rect x="0" y="80" width="40" height="30" fill="rgba(255,255,255,0.3)" rx="4" stroke-dasharray="4"/>
    <rect x="50" y="80" width="40" height="30" fill="rgba(255,255,255,0.8)" rx="4"/>
    <rect x="100" y="80" width="40" height="30" fill="rgba(255,255,255,0.8)" rx="4"/>
    <rect x="150" y="80" width="40" height="30" fill="rgba(255,255,255,0.8)" rx="4"/>
  </g>
  
  <!-- Arrow -->
  <path d="M430 200 L480 200" stroke="white" stroke-width="3"/>
  <polygon points="480,200 470,195 470,205" fill="white"/>
  
  <!-- Complete grid -->
  <g transform="translate(520, 130)">
    <rect x="0" y="0" width="40" height="30" fill="rgba(255,255,255,0.9)" rx="4"/>
    <rect x="50" y="0" width="40" height="30" fill="#10b981" rx="4"/>
    <rect x="100" y="0" width="40" height="30" fill="rgba(255,255,255,0.9)" rx="4"/>
    <rect x="150" y="0" width="40" height="30" fill="rgba(255,255,255,0.9)" rx="4"/>
    
    <rect x="0" y="40" width="40" height="30" fill="rgba(255,255,255,0.9)" rx="4"/>
    <rect x="50" y="40" width="40" height="30" fill="rgba(255,255,255,0.9)" rx="4"/>
    <rect x="100" y="40" width="40" height="30" fill="#10b981" rx="4"/>
    <rect x="150" y="40" width="40" height="30" fill="rgba(255,255,255,0.9)" rx="4"/>
    
    <rect x="0" y="80" width="40" height="30" fill="#10b981" rx="4"/>
    <rect x="50" y="80" width="40" height="30" fill="rgba(255,255,255,0.9)" rx="4"/>
    <rect x="100" y="80" width="40" height="30" fill="rgba(255,255,255,0.9)" rx="4"/>
    <rect x="150" y="80" width="40" height="30" fill="rgba(255,255,255,0.9)" rx="4"/>
  </g>
  
  <text x="400" y="60" font-family="Inter, sans-serif" font-size="42" fill="white" text-anchor="middle" font-weight="700">缺失值处理</text>
  <text x="400" y="95" font-family="Inter, sans-serif" font-size="18" fill="rgba(255,255,255,0.9)" text-anchor="middle">Missing Data Handling</text>
  <text x="400" y="330" font-family="Inter, sans-serif" font-size="14" fill="rgba(255,255,255,0.7)" text-anchor="middle">检测 | 可视化 | 多重插补 | mice</text>
</svg>
