<svg xmlns="http://www.w3.org/2000/svg" viewBox="0 0 850 550">
  <defs>
    <linearGradient id="followupGrad" x1="0%" y1="0%" x2="100%" y2="0%">
      <stop offset="0%" style="stop-color:#dbeafe"/>
      <stop offset="100%" style="stop-color:#3b82f6"/>
    </linearGradient>
    <linearGradient id="eventGrad" x1="0%" y1="0%" x2="0%" y2="100%">
      <stop offset="0%" style="stop-color:#fca5a5"/>
      <stop offset="100%" style="stop-color:#ef4444"/>
    </linearGradient>
    <linearGradient id="censorGrad" x1="0%" y1="0%" x2="0%" y2="100%">
      <stop offset="0%" style="stop-color:#a5b4fc"/>
      <stop offset="100%" style="stop-color:#6366f1"/>
    </linearGradient>
    <filter id="shadow" x="-20%" y="-20%" width="140%" height="140%">
      <feDropShadow dx="2" dy="3" stdDeviation="3" flood-opacity="0.15"/>
    </filter>
  </defs>
  
  <!-- Background -->
  <rect width="850" height="550" fill="#fafafa"/>
  
  <!-- Title -->
  <text x="425" y="35" text-anchor="middle" font-family="Microsoft YaHei, sans-serif" font-size="22" font-weight="bold" fill="#1e293b">้ๅ็็ฉถไธญ็ไบบๆถ่ฎก็ฎ</text>
  <text x="425" y="58" text-anchor="middle" font-family="Microsoft YaHei, sans-serif" font-size="14" fill="#64748b">Person-Time Calculation in Cohort Studies</text>
  
  <!-- Time axis -->
  <rect x="120" y="85" width="680" height="6" rx="3" fill="url(#followupGrad)"/>
  <text x="120" y="78" font-family="Microsoft YaHei, sans-serif" font-size="11" fill="#64748b">็็ฉถ่ตท็น</text>
  <text x="800" y="78" text-anchor="end" font-family="Microsoft YaHei, sans-serif" font-size="11" fill="#64748b">็็ฉถ็ป็น</text>
  
  <!-- Year markers -->
  <g font-family="Arial, sans-serif" font-size="10" fill="#94a3b8" text-anchor="middle">
    <line x1="120" y1="91" x2="120" y2="100" stroke="#94a3b8"/>
    <text x="120" y="112">0ๅนด</text>
    <line x1="256" y1="91" x2="256" y2="100" stroke="#94a3b8"/>
    <text x="256" y="112">1ๅนด</text>
    <line x1="392" y1="91" x2="392" y2="100" stroke="#94a3b8"/>
    <text x="392" y="112">2ๅนด</text>
    <line x1="528" y1="91" x2="528" y2="100" stroke="#94a3b8"/>
    <text x="528" y="112">3ๅนด</text>
    <line x1="664" y1="91" x2="664" y2="100" stroke="#94a3b8"/>
    <text x="664" y="112">4ๅนด</text>
    <line x1="800" y1="91" x2="800" y2="100" stroke="#94a3b8"/>
    <text x="800" y="112">5ๅนด</text>
  </g>
  
  <!-- Participant 1: Full follow-up, no event -->
  <g transform="translate(0, 130)">
    <text x="40" y="18" font-family="Microsoft YaHei, sans-serif" font-size="13" fill="#1e293b" font-weight="bold">ๅฏน่ฑก 1</text>
    <circle cx="120" cy="15" r="8" fill="#10b981"/>
    <line x1="128" y1="15" x2="800" y2="15" stroke="#10b981" stroke-width="4" stroke-linecap="round"/>
    <circle cx="800" cy="15" r="8" fill="#10b981"/>
    <text x="460" y="40" text-anchor="middle" font-family="Microsoft YaHei, sans-serif" font-size="11" fill="#10b981">ๅฎๆด้่ฎฟ 5 ๅนด๏ผๆไบไปถๅ็ โ ่ดก็ฎ 5 ไบบๅนด</text>
  </g>
  
  <!-- Participant 2: Event at year 3 -->
  <g transform="translate(0, 190)">
    <text x="40" y="18" font-family="Microsoft YaHei, sans-serif" font-size="13" fill="#1e293b" font-weight="bold">ๅฏน่ฑก 2</text>
    <circle cx="120" cy="15" r="8" fill="#10b981"/>
    <line x1="128" y1="15" x2="520" y2="15" stroke="#f59e0b" stroke-width="4" stroke-linecap="round"/>
    <g transform="translate(528, 15)">
      <polygon points="0,-12 10,0 0,12 -10,0" fill="#ef4444" stroke="#fff" stroke-width="1.5"/>
      <text x="0" y="4" text-anchor="middle" font-family="Arial" font-size="10" fill="#fff" font-weight="bold">ร</text>
    </g>
    <text x="324" y="40" text-anchor="middle" font-family="Microsoft YaHei, sans-serif" font-size="11" fill="#f59e0b">็ฌฌ 3 ๅนดๅ็ไบไปถ โ ่ดก็ฎ 3 ไบบๅนด</text>
  </g>
  
  <!-- Participant 3: Lost to follow-up at year 2 -->
  <g transform="translate(0, 250)">
    <text x="40" y="18" font-family="Microsoft YaHei, sans-serif" font-size="13" fill="#1e293b" font-weight="bold">ๅฏน่ฑก 3</text>
    <circle cx="120" cy="15" r="8" fill="#10b981"/>
    <line x1="128" y1="15" x2="384" y2="15" stroke="#6366f1" stroke-width="4" stroke-linecap="round" stroke-dasharray="8,4"/>
    <circle cx="392" cy="15" r="8" fill="#6366f1" stroke="#fff" stroke-width="2"/>
    <text x="256" y="40" text-anchor="middle" font-family="Microsoft YaHei, sans-serif" font-size="11" fill="#6366f1">็ฌฌ 2 ๅนดๅคฑ่ฎฟ๏ผๅๅคฑ๏ผโ ่ดก็ฎ 2 ไบบๅนด</text>
  </g>
  
  <!-- Participant 4: Late entry, event at year 4.5 -->
  <g transform="translate(0, 310)">
    <text x="40" y="18" font-family="Microsoft YaHei, sans-serif" font-size="13" fill="#1e293b" font-weight="bold">ๅฏน่ฑก 4</text>
    <line x1="120" y1="15" x2="256" y2="15" stroke="#e2e8f0" stroke-width="2" stroke-dasharray="4,4"/>
    <circle cx="256" cy="15" r="8" fill="#10b981"/>
    <line x1="264" y1="15" x2="725" y2="15" stroke="#f59e0b" stroke-width="4" stroke-linecap="round"/>
    <g transform="translate(732, 15)">
      <polygon points="0,-12 10,0 0,12 -10,0" fill="#ef4444" stroke="#fff" stroke-width="1.5"/>
      <text x="0" y="4" text-anchor="middle" font-family="Arial" font-size="10" fill="#fff" font-weight="bold">ร</text>
    </g>
    <text x="494" y="40" text-anchor="middle" font-family="Microsoft YaHei, sans-serif" font-size="11" fill="#f59e0b">็ฌฌ 1 ๅนดๅฅ้๏ผ็ฌฌ 4.5 ๅนดๅ็ไบไปถ โ ่ดก็ฎ 3.5 ไบบๅนด</text>
  </g>
  
  <!-- Legend -->
  <g transform="translate(120, 380)">
    <rect x="0" y="0" width="660" height="70" rx="10" fill="#fff" stroke="#e2e8f0" stroke-width="1.5" filter="url(#shadow)"/>
    <text x="20" y="25" font-family="Microsoft YaHei, sans-serif" font-size="13" font-weight="bold" fill="#1e293b">ๅพไพ่ฏดๆ</text>
    
    <circle cx="40" cy="50" r="6" fill="#10b981"/>
    <text x="55" y="54" font-family="Microsoft YaHei, sans-serif" font-size="11" fill="#475569">ๅฅ้/็ปๆ</text>
    
    <line x1="140" y1="50" x2="180" y2="50" stroke="#10b981" stroke-width="3"/>
    <text x="195" y="54" font-family="Microsoft YaHei, sans-serif" font-size="11" fill="#475569">ๅฎๆด้่ฎฟ</text>
    
    <line x1="290" y1="50" x2="330" y2="50" stroke="#f59e0b" stroke-width="3"/>
    <text x="345" y="54" font-family="Microsoft YaHei, sans-serif" font-size="11" fill="#475569">้่ฎฟ่ณไบไปถ</text>
    
    <g transform="translate(455, 50)">
      <polygon points="0,-8 7,0 0,8 -7,0" fill="#ef4444"/>
    </g>
    <text x="475" y="54" font-family="Microsoft YaHei, sans-serif" font-size="11" fill="#475569">ไบไปถๅ็</text>
    
    <circle cx="560" cy="50" r="6" fill="#6366f1"/>
    <text x="575" y="54" font-family="Microsoft YaHei, sans-serif" font-size="11" fill="#475569">ๅๅคฑ</text>
  </g>
  
  <!-- Formula box -->
  <rect x="120" y="465" width="660" height="70" rx="10" fill="#ecfdf5" stroke="#10b981" stroke-width="2" filter="url(#shadow)"/>
  <text x="150" y="495" font-family="Microsoft YaHei, sans-serif" font-size="14" font-weight="bold" fill="#065f46">๐ ่ฎก็ฎๅฌๅผ</text>
  <text x="150" y="520" font-family="Arial, Microsoft YaHei" font-size="13" fill="#047857">
    ๆปไบบๆถ = 5 + 3 + 2 + 3.5 = <tspan font-weight="bold">13.5 ไบบๅนด</tspan>
    <tspan x="450">ๅ็็ = ไบไปถๆฐ / ๆปไบบๆถ = 2 / 13.5 = </tspan>
    <tspan font-weight="bold">14.8 / 100ไบบๅนด</tspan>
  </text>
</svg>